<svg width="52" height="52" viewBox="0 0 52 52" fill="none" xmlns="http://www.w3.org/2000/svg">
    <rect width="52" height="52" rx="26" fill="url(#paint0_linear_81034_11484)" />
    <path
        d="M42.1656 16.3414C43.2373 30.8598 33.9059 37.722 25.5407 38.4537C17.7634 39.1341 10.4427 34.3546 9.80047 27.0114C9.2707 20.9447 13.0198 18.3619 15.9654 18.1044C18.995 17.8388 21.5409 19.9283 21.7618 22.4583C21.9745 24.8907 20.457 25.9978 19.4015 26.0899C18.5668 26.1631 17.5168 25.6563 17.4219 24.5682C17.3406 23.6332 17.6956 23.5058 17.6089 22.5125C17.4545 20.7441 15.9125 20.5381 15.0684 20.6113C14.0468 20.7007 12.1933 21.8932 12.4534 24.8636C12.7149 27.8597 15.5874 30.2271 19.3527 29.8977C23.4161 29.5427 26.2452 26.3786 26.458 21.9406C26.456 21.7056 26.5056 21.473 26.6029 21.259L26.6042 21.2536C26.6481 21.1607 26.6993 21.0714 26.7574 20.9867C26.8441 20.8566 26.9552 20.7129 27.0988 20.5558C27.1001 20.5517 27.1001 20.5517 27.1029 20.5517C27.2072 20.4338 27.3332 20.3064 27.4755 20.1695C29.2504 18.4947 35.643 14.5446 41.6887 15.7953C41.8164 15.8227 41.932 15.8907 42.0179 15.9891C42.1039 16.0875 42.1556 16.2111 42.1656 16.3414Z"
        fill="white" />
    <defs>
        <linearGradient id="paint0_linear_81034_11484" x1="50.5462" y1="1.45392" x2="2.85695e-05"
            y2="52.0001" gradientUnits="userSpaceOnUse">
            <stop stop-color="#11C4D1" />
            <stop offset="1" stop-color="#0062AD" />
        </linearGradient>
    </defs>
</svg>
    