<svg width="52" height="52" viewBox="0 0 52 52" fill="none" xmlns="http://www.w3.org/2000/svg">
    <rect width="52" height="52" rx="26" fill="url(#paint0_linear_81034_11490)" />
    <path d="M9.48901 8.125L23.8095 19.0044L21.4789 12.7365L9.48901 8.125Z" fill="#E27625" />
    <path d="M7.58643 33.0287L10.3533 41.3294L18.7112 38.5625L14.7149 32.9688L7.58643 33.0287Z"
        fill="#E27625" />
    <path d="M18.0203 22.3089L15.8298 26.5745L24.2458 26.8051L23.4388 17.3516L18.0203 22.3089Z"
        fill="#E27625" />
    <path d="M18.7122 38.5572L23.3522 36.7126L19.1733 33.0234L18.7122 38.5572Z" fill="#E27625" />
    <path d="M18.7122 38.5633L23.1503 41.2149L23.3522 36.7188L18.7122 38.5633Z" fill="#D7CCC8" />
    <path d="M18.7111 38.5572L19.1722 33.0234H14.676L18.7111 38.5572Z" fill="#CC6228" />
    <path d="M23.9 26.5703L23.1833 31.0471L24.1389 35.9667L24.3528 29.4829L23.9 26.5703Z"
        fill="#FB8C00" />
    <path
        d="M7.64453 13.6588L10.4114 25.6486L18.0942 23.0708L23.3236 18.2703L9.48913 8.125L7.64453 13.6588Z"
        fill="#763E1A" />
    <path
        d="M23.3236 30.4902L15.9452 26.5704L18.0932 23.0703L10.4105 25.6481L7.58643 33.0265H19.1732L23.3522 36.7157L24.138 35.9668L23.3236 30.4902Z"
        fill="#FB8C00" />
    <path d="M19.1734 29.7984L23.3237 31.1818L23.9001 26.5703H15.9453L19.1734 29.7984Z"
        fill="#CC6228" />
    <path d="M23.3237 31.181L19.1733 29.7975L22.0555 28.4141L23.3237 31.181Z" fill="#212121" />
    <path d="M30.6707 12.7365L28.3391 19.0044L42.6605 8.125L30.6707 12.7365Z" fill="#E27625" />
    <path d="M37.4346 32.9688L33.4688 38.5625L41.7962 41.3294L44.5631 33.0287L37.4346 32.9688Z"
        fill="#E27625" />
    <path d="M28.6267 17.5781L28.2117 26.8813L36.3196 26.5705L34.3901 22.8813L28.6267 17.5781Z"
        fill="#E27625" />
    <path d="M32.9764 33.0234L28.8279 36.7126L33.468 38.5572L32.9764 33.0234Z" fill="#E27625" />
    <path d="M28.8279 36.7188L28.9994 41.2149L33.4689 38.5633L28.8279 36.7188Z" fill="#D7CCC8" />
    <path d="M37.4725 33.0234H32.9763L33.4679 38.5572L37.4725 33.0234Z" fill="#CC6228" />
    <path
        d="M29.1719 40.8194V39.4848H22.9778V40.8194L18.7122 38.5625L23.3236 42.2517H28.8261L33.4689 38.5625L29.1719 40.8194Z"
        fill="#BCAAA4" />
    <path
        d="M42.6605 8.125L28.8574 18.2703L34.0564 23.0708L41.7687 25.6486L44.5051 13.6588L42.6605 8.125Z"
        fill="#763E1A" />
    <path
        d="M41.7695 25.6481L34.0563 23.0703L36.2043 26.5704L28.9256 30.7909L28.2495 26.5704L27.7976 29.483L28.0116 35.9668L28.0125 35.9603L28.0116 35.9668L28.8278 36.7157L32.9763 33.0265H44.5631L41.7695 25.6481Z"
        fill="#FB8C00" />
    <path
        d="M21.479 12.7344L23.3236 18.2682L23.9378 26.8796L24.1232 29.4953L24.138 35.9652H26.0739V35.9237L26.0757 35.9652H28.0116L28.0264 29.4953L28.2118 26.8796L28.8574 18.2682L30.702 12.7344H21.479Z"
        fill="#FB8C00" />
    <path
        d="M28.8574 36.7192L27.9905 35.7969H24.1592L23.3236 36.7192L22.9778 39.4861H29.1719L28.8574 36.7192Z"
        fill="#212121" />
    <path d="M36.2043 26.5703H28.2495L28.8259 31.1818L32.9763 29.7984L36.2043 26.5703Z"
        fill="#CC6228" />
    <path d="M30.1255 28.4141L32.9772 29.7975L28.8269 31.181L30.1255 28.4141Z" fill="#212121" />
    <defs>
        <linearGradient id="paint0_linear_81034_11490" x1="26" y1="0" x2="26" y2="52"
            gradientUnits="userSpaceOnUse">
            <stop stop-color="#FEF5E6" />
            <stop offset="1" stop-color="#E4CBB1" />
        </linearGradient>
    </defs>
</svg>
    