<svg width="52" height="52" viewBox="0 0 52 52" fill="none" xmlns="http://www.w3.org/2000/svg">
    <path d="M5.47852 4L23.2611 17.5096L20.367 9.72635L5.47852 4Z" fill="#E27625" />
    <path d="M3.11719 34.926L6.553 45.2334L16.9314 41.7976L11.969 34.8516L3.11719 34.926Z"
        fill="#E27625" />
    <path d="M16.0735 21.609L13.3535 26.9058L23.8041 27.1921L22.802 15.4531L16.0735 21.609Z"
        fill="#E27625" />
    <path d="M16.9316 41.7935L22.6935 39.503L17.5043 34.9219L16.9316 41.7935Z" fill="#E27625" />
    <path d="M16.9316 41.7905L22.4427 45.0832L22.6935 39.5L16.9316 41.7905Z" fill="#D7CCC8" />
    <path d="M16.9324 41.7935L17.5051 34.9219H11.9219L16.9324 41.7935Z" fill="#CC6228" />
    <path d="M23.3762 26.9062L22.4863 32.4654L23.6728 38.5743L23.9385 30.523L23.3762 26.9062Z"
        fill="#FB8C00" />
    <path
        d="M3.18945 10.8716L6.62526 25.7601L16.1654 22.5591L22.659 16.598L5.47999 4L3.18945 10.8716Z"
        fill="#763E1A" />
    <path
        d="M22.6589 31.7684L13.4968 26.901L16.1641 22.5547L6.624 25.7557L3.11719 34.9179H17.5052L22.6944 39.499L23.6702 38.569L22.6589 31.7684Z"
        fill="#FB8C00" />
    <path d="M17.5065 30.9147L22.6602 32.6326L23.376 26.9062H13.498L17.5065 30.9147Z" fill="#CC6228" />
    <path d="M22.6576 32.6311L17.5039 30.9132L21.0829 29.1953L22.6576 32.6311Z" fill="#212121" />
    <path d="M31.782 9.72635L28.8867 17.5096L46.6705 4L31.782 9.72635Z" fill="#E27625" />
    <path d="M40.1825 34.8516L35.2578 41.7976L45.5985 45.2334L49.0343 34.926L40.1825 34.8516Z"
        fill="#E27625" />
    <path d="M29.2439 15.7422L28.7285 27.2945L38.7966 26.9086L36.4007 22.3275L29.2439 15.7422Z"
        fill="#E27625" />
    <path d="M34.6456 34.9219L29.4941 39.503L35.256 41.7935L34.6456 34.9219Z" fill="#E27625" />
    <path d="M29.4941 39.5L29.7072 45.0832L35.2571 41.7905L29.4941 39.5Z" fill="#D7CCC8" />
    <path d="M40.2297 34.9219H34.6465L35.2569 41.7935L40.2297 34.9219Z" fill="#CC6228" />
    <path
        d="M29.9201 44.5993V42.9421H22.2285V44.5993L16.9316 41.7969L22.658 46.378H29.4907L35.256 41.7969L29.9201 44.5993Z"
        fill="#BCAAA4" />
    <path d="M46.6714 4L29.5312 16.598L35.9871 22.5591L45.5639 25.7601L48.9619 10.8716L46.6714 4Z"
        fill="#763E1A" />
    <path
        d="M45.5645 25.7635L35.9866 22.5625L38.654 26.9088L29.6155 32.1496L28.776 26.9088L28.2148 30.5256L28.4805 38.5768L28.4817 38.5688L28.4805 38.5768L29.4941 39.5068L34.6455 34.9257H49.0336L45.5645 25.7635Z"
        fill="#FB8C00" />
    <path
        d="M20.3691 9.73438L22.6597 16.606L23.4224 27.2994L23.6526 30.5474L23.671 38.5814H26.0749V38.5299L26.0772 38.5814H28.4811L28.4994 30.5474L28.7296 27.2994L29.5313 16.606L31.8218 9.73438H20.3691Z"
        fill="#FB8C00" />
    <path
        d="M29.5296 39.5046L28.4531 38.3594H23.6956L22.658 39.5046L22.2285 42.9405H29.9202L29.5296 39.5046Z"
        fill="#212121" />
    <path d="M38.6553 26.9062H28.7773L29.4931 32.6326L34.6469 30.9147L38.6553 26.9062Z"
        fill="#CC6228" />
    <path d="M31.1047 29.1953L34.6459 30.9132L29.4922 32.6311L31.1047 29.1953Z" fill="#212121" />
</svg>
    