<svg width="52" height="52" viewBox="0 0 52 52" fill="none" xmlns="http://www.w3.org/2000/svg">
    <path
        d="M26 52C40.3594 52 52 40.3594 52 26C52 11.6406 40.3594 0 26 0C11.6406 0 0 11.6406 0 26C0 40.3594 11.6406 52 26 52Z"
        fill="#0058E3" />
    <rect width="52" height="52" rx="26" fill="black" />
    <path
        d="M30.9581 31.3288L21.0781 31.3392L20.9377 31.1845C20.9377 28.1512 20.9399 25.1178 20.9442 22.0845C20.9442 21.2512 21.0066 21.1875 21.8256 21.1875C24.5985 21.1875 27.3714 21.1875 30.1456 21.194C30.4213 21.2172 30.6945 21.2642 30.962 21.3344L30.9412 21.3136C31.0076 21.4441 31.0536 21.5839 31.0777 21.7283C31.0777 24.9055 31.0686 28.0831 31.0504 31.2612C31.0213 31.2858 30.9904 31.3084 30.9581 31.3288Z"
        fill="white" />
    <path
        d="M15.9616 21.3199C14.4913 21.3199 13.0197 21.3082 11.5494 21.329C11.097 21.3355 10.928 21.1457 10.928 20.7284C10.928 17.7427 10.928 14.7575 10.928 11.7727C10.928 11.2189 11.3271 11.1799 11.7392 11.1799H17.8401C18.6838 11.1799 19.5301 11.1916 20.3712 11.1799C20.86 11.1721 21.0732 11.3788 21.0719 11.8728C21.0641 14.8368 21.0641 17.8008 21.0719 20.7648C21.0719 21.1886 20.9224 21.3342 20.5025 21.329C18.988 21.3095 17.4761 21.3199 15.9616 21.3199Z"
        fill="white" />
    <path
        d="M30.9543 21.3392C30.8892 20.9641 30.8458 20.5857 30.8243 20.2056C30.8126 17.5224 30.8178 14.8392 30.8243 12.1573C30.8243 11.3396 30.9764 11.1875 31.8045 11.1875C34.5527 11.1875 37.3005 11.1875 40.0478 11.1875C40.8733 11.1875 40.9786 11.2967 40.9786 12.1248C40.9786 14.9588 40.9695 17.7928 40.9864 20.6281C40.9864 21.1481 40.8148 21.3717 40.2818 21.3665C37.1618 21.3418 34.0522 21.3327 30.9374 21.3197L30.9543 21.3392Z"
        fill="white" />
    <path
        d="M20.9379 31.1875L21.0887 31.3383C21.0835 34.3716 21.0787 37.405 21.0744 40.4383C21.0744 41.2183 20.9561 41.3483 20.1826 41.3483C17.4092 41.3483 14.6359 41.3483 11.8626 41.3483C11.0501 41.3483 10.9331 41.2183 10.9331 40.4149C10.9331 37.6199 10.95 34.8249 10.9201 32.0312C10.9136 31.3812 11.1177 31.1836 11.7742 31.1901C14.8279 31.2122 17.8777 31.1901 20.9379 31.1875Z"
        fill="white" />
    <path
        d="M30.9584 31.3318C30.9878 31.3128 31.016 31.292 31.0429 31.2694C31.2332 31.2387 31.425 31.2183 31.6175 31.2083C34.4983 31.2083 37.3804 31.2174 40.2612 31.1953C40.7942 31.1953 40.9853 31.3461 40.9814 31.8908C40.9632 34.7941 40.9632 37.6975 40.9814 40.6008C40.9814 41.1702 40.7448 41.3561 40.2014 41.3535C37.3622 41.3405 34.5238 41.3405 31.6864 41.3535C31.1066 41.3535 30.8102 41.1338 30.8128 40.528C30.8193 37.6459 30.8128 34.7638 30.8219 31.883C30.8454 31.6945 30.8912 31.5095 30.9584 31.3318Z"
        fill="white" />
</svg>
    