<svg width="52" height="52" viewBox="0 0 52 52" fill="none" xmlns="http://www.w3.org/2000/svg">
    <rect width="52" height="52" rx="26" fill="#7084FF" />
    <path
        d="M43.6781 28.2954C45.1053 25.0988 38.0498 16.168 31.3094 12.4472C27.0608 9.56481 22.6337 9.96081 21.737 11.2264C19.7693 14.0039 28.2527 16.3574 33.9263 19.1037C32.7067 19.6348 31.5574 20.5879 30.8816 21.8067C28.7664 19.4915 24.1239 17.4977 18.6765 19.1037C15.0056 20.186 11.9547 22.7374 10.7756 26.5911C10.4891 26.4635 10.1719 26.3925 9.83814 26.3925C8.56192 26.3925 7.52734 27.4298 7.52734 28.7094C7.52734 29.989 8.56192 31.0263 9.83814 31.0263C10.0747 31.0263 10.8143 30.8672 10.8143 30.8672L22.6337 30.953C17.9068 38.4713 14.1713 39.5704 14.1713 40.8729C14.1713 42.1754 17.7455 41.8224 19.0876 41.3369C25.5121 39.0127 32.4123 31.7692 33.5964 29.6841C38.5688 30.3061 42.7476 30.3796 43.6781 28.2954Z"
        fill="url(#paint0_linear_81034_11443)" />
    <path fill-rule="evenodd" clip-rule="evenodd"
        d="M33.8741 19.076C33.8926 19.084 33.911 19.092 33.9294 19.1001C34.1923 18.9962 34.1498 18.6068 34.0776 18.301C33.9116 17.5981 31.0479 14.7629 28.3588 13.493C24.6934 11.762 21.9946 11.8518 21.5972 12.65C22.3407 14.1849 25.8031 15.6258 29.4193 17.1308C30.9407 17.7639 32.4893 18.4084 33.8741 19.076Z"
        fill="url(#paint1_linear_81034_11443)" />
    <path fill-rule="evenodd" clip-rule="evenodd"
        d="M29.272 34.5374C28.5323 34.2543 27.697 33.9945 26.7477 33.7587C27.7625 31.9382 27.9754 29.2432 27.0171 27.5392C25.6721 25.1478 23.9838 23.875 20.0605 23.875C17.9027 23.875 12.093 24.6037 11.9899 29.4663C11.9791 29.9743 11.9895 30.44 12.026 30.8685L22.6335 30.9456C21.2017 33.2229 19.8609 34.9113 18.6873 36.1947C20.0979 36.5571 21.2615 36.8612 22.3297 37.1404C23.3394 37.4043 24.2638 37.646 25.2309 37.8934C26.6941 36.8249 28.0698 35.6597 29.272 34.5374Z"
        fill="url(#paint2_linear_81034_11443)" />
    <path
        d="M10.6324 30.3712C11.0658 34.065 13.1596 35.5127 17.4381 35.9411C21.7166 36.3695 24.1708 36.0821 27.4381 36.3801C30.167 36.6291 32.6036 38.0233 33.5075 37.5415C34.321 37.1079 33.8659 35.5412 32.7774 34.5361C31.3663 33.2333 29.4135 32.3274 25.9773 32.006C26.6621 30.1261 26.4702 27.4903 25.4067 26.0562C23.8689 23.9827 21.0305 23.0453 17.4381 23.4549C13.6848 23.8828 10.0885 25.7354 10.6324 30.3712Z"
        fill="url(#paint3_linear_81034_11443)" />
    <defs>
        <linearGradient id="paint0_linear_81034_11443" x1="18.249" y1="25.4646" x2="43.3806"
            y2="32.5728" gradientUnits="userSpaceOnUse">
            <stop stop-color="white" />
            <stop offset="1" stop-color="white" />
        </linearGradient>
        <linearGradient id="paint1_linear_81034_11443" x1="39.1432" y1="24.9813" x2="20.9691"
            y2="6.81008" gradientUnits="userSpaceOnUse">
            <stop stop-color="#8697FF" />
            <stop offset="1" stop-color="#8697FF" stop-opacity="0" />
        </linearGradient>
        <linearGradient id="paint2_linear_81034_11443" x1="29.7761" y1="35.1727" x2="12.345"
            y2="25.1792" gradientUnits="userSpaceOnUse">
            <stop stop-color="#8697FF" />
            <stop offset="1" stop-color="#8697FF" stop-opacity="0" />
        </linearGradient>
        <linearGradient id="paint3_linear_81034_11443" x1="19.7472" y1="25.2716" x2="31.5549"
            y2="40.2352" gradientUnits="userSpaceOnUse">
            <stop stop-color="white" />
            <stop offset="0.983895" stop-color="#D1D8FF" />
        </linearGradient>
    </defs>
</svg>
    