<svg width="52" height="52" viewBox="0 0 52 52" fill="none" xmlns="http://www.w3.org/2000/svg">
    <rect width="52" height="52" rx="26" fill="url(#paint0_linear_81034_11455)" />
    <path
        d="M8.6665 16.4641H11.2665C24.6686 16.4641 35.5332 27.3286 35.5332 40.7307V43.3307H40.7332C42.1691 43.3307 43.3332 42.1667 43.3332 40.7307C43.3332 23.0208 28.9764 8.66406 11.2665 8.66406C9.83057 8.66406 8.6665 9.82813 8.6665 11.2641V16.4641Z"
        fill="url(#paint1_radial_81034_11455)" />
    <path
        d="M36.4001 40.7344H43.3335C43.3335 42.1703 42.1694 43.3344 40.7335 43.3344H36.4001V40.7344Z"
        fill="url(#paint2_linear_81034_11455)" />
    <path
        d="M11.2665 8.66406V15.5974H8.6665V11.2641C8.6665 9.82813 9.83057 8.66406 11.2665 8.66406Z"
        fill="url(#paint3_linear_81034_11455)" />
    <path
        d="M8.6665 15.5938H11.2665C25.1473 15.5938 36.3998 26.8463 36.3998 40.7271V43.3271H28.5998V40.7271C28.5998 31.1541 20.8394 23.3938 11.2665 23.3938H8.6665V15.5938Z"
        fill="url(#paint4_radial_81034_11455)" />
    <path d="M29.4668 40.7344H36.4001V43.3344H29.4668V40.7344Z"
        fill="url(#paint5_linear_81034_11455)" />
    <path d="M8.6665 22.5271V15.5938H11.2665V22.5271H8.6665Z" fill="url(#paint6_linear_81034_11455)" />
    <path
        d="M8.125 27.0833C8.125 28.5193 9.28906 29.6833 10.725 29.6833C16.9474 29.6833 21.9917 34.7276 21.9917 40.95C21.9917 42.3859 23.1557 43.55 24.5917 43.55H28.925V40.95C28.925 30.8984 20.7766 22.75 10.725 22.75H8.125V27.0833Z"
        fill="url(#paint7_radial_81034_11455)" />
    <path
        d="M22.5332 40.7344H29.4665V43.3344H25.1332C23.6973 43.3344 22.5332 42.1703 22.5332 40.7344Z"
        fill="url(#paint8_radial_81034_11455)" />
    <path
        d="M11.2665 29.4646C9.83057 29.4646 8.6665 28.3005 8.6665 26.8646V22.5312H11.2665V29.4646Z"
        fill="url(#paint9_radial_81034_11455)" />
    <defs>
        <linearGradient id="paint0_linear_81034_11455" x1="26" y1="0" x2="26" y2="52"
            gradientUnits="userSpaceOnUse">
            <stop stop-color="#174299" />
            <stop offset="1" stop-color="#001E59" />
        </linearGradient>
        <radialGradient id="paint1_radial_81034_11455" cx="0" cy="0" r="1"
            gradientUnits="userSpaceOnUse"
            gradientTransform="translate(11.2665 40.7307) rotate(-90) scale(32.0667)">
            <stop offset="0.770277" stop-color="#FF4000" />
            <stop offset="1" stop-color="#8754C9" />
        </radialGradient>
        <linearGradient id="paint2_linear_81034_11455" x1="35.9668" y1="42.0344" x2="43.3335"
            y2="42.0344" gradientUnits="userSpaceOnUse">
            <stop stop-color="#FF4000" />
            <stop offset="1" stop-color="#8754C9" />
        </linearGradient>
        <linearGradient id="paint3_linear_81034_11455" x1="9.9665" y1="8.66406" x2="9.9665"
            y2="16.0307" gradientUnits="userSpaceOnUse">
            <stop stop-color="#8754C9" />
            <stop offset="1" stop-color="#FF4000" />
        </linearGradient>
        <radialGradient id="paint4_radial_81034_11455" cx="0" cy="0" r="1"
            gradientUnits="userSpaceOnUse"
            gradientTransform="translate(11.2665 40.7271) rotate(-90) scale(25.1333 25.1333)">
            <stop offset="0.723929" stop-color="#FFF700" />
            <stop offset="1" stop-color="#FF9901" />
        </radialGradient>
        <linearGradient id="paint5_linear_81034_11455" x1="29.4668" y1="42.0344" x2="36.4001"
            y2="42.0344" gradientUnits="userSpaceOnUse">
            <stop stop-color="#FFF700" />
            <stop offset="1" stop-color="#FF9901" />
        </linearGradient>
        <linearGradient id="paint6_linear_81034_11455" x1="9.9665" y1="22.5271" x2="9.9665"
            y2="15.5938" gradientUnits="userSpaceOnUse">
            <stop stop-color="#FFF700" />
            <stop offset="1" stop-color="#FF9901" />
        </linearGradient>
        <radialGradient id="paint7_radial_81034_11455" cx="0" cy="0" r="1"
            gradientUnits="userSpaceOnUse"
            gradientTransform="translate(10.725 40.95) rotate(-90) scale(18.2 18.2)">
            <stop offset="0.59513" stop-color="#00AAFF" />
            <stop offset="1" stop-color="#01DA40" />
        </radialGradient>
        <radialGradient id="paint8_radial_81034_11455" cx="0" cy="0" r="1"
            gradientUnits="userSpaceOnUse"
            gradientTransform="translate(22.0999 42.0344) scale(7.36667 19.6444)">
            <stop stop-color="#00AAFF" />
            <stop offset="1" stop-color="#01DA40" />
        </radialGradient>
        <radialGradient id="paint9_radial_81034_11455" cx="0" cy="0" r="1"
            gradientUnits="userSpaceOnUse"
            gradientTransform="translate(9.9665 29.8979) rotate(-90) scale(7.36667 139.694)">
            <stop stop-color="#00AAFF" />
            <stop offset="1" stop-color="#01DA40" />
        </radialGradient>
    </defs>
</svg>
    