<svg width="52" height="52" viewBox="0 0 52 52" fill="none" xmlns="http://www.w3.org/2000/svg">
    <rect width="52" height="52" rx="26" fill="#2980FE" />
    <path d="M20.4829 23.5181H20.4888C20.4829 23.4828 20.4829 23.4416 20.4829 23.4062V23.5181Z"
        fill="#29AEFF" />
    <path
        d="M32.2055 24.6328H25.7173V36.3434C25.7173 36.8968 26.1647 37.3443 26.7182 37.3443H31.2046C31.758 37.3443 32.2055 36.8968 32.2055 36.3434V24.6328Z"
        fill="white" />
    <path
        d="M22.5851 16.25H22.3673H10.7509C10.1974 16.25 9.75 16.6974 9.75 17.2509V21.3134C9.75 21.8669 10.1974 22.3143 10.7509 22.3143H13.4769H14.5603V23.5154V36.3741C14.5603 36.9276 15.0077 37.375 15.5611 37.375H19.8238C20.3773 37.375 20.8247 36.9276 20.8247 36.3741V23.5154V23.4036V22.3143H21.9081H22.3496H22.5675C24.2396 22.3143 25.5996 20.9543 25.5996 19.2822C25.6173 17.61 24.2573 16.25 22.5851 16.25Z"
        fill="white" />
    <path
        d="M32.2114 24.6328V32.8049C32.4352 32.8579 32.6648 32.8991 32.9003 32.9344C33.23 32.9815 33.5715 33.011 33.913 33.0169C33.9306 33.0169 33.9483 33.0169 33.9719 33.0169V26.5168C32.9886 26.4521 32.2114 25.6337 32.2114 24.6328Z"
        fill="url(#paint0_linear_81034_11496)" />
    <path
        d="M34.1013 16.25C29.4736 16.25 25.7173 20.0063 25.7173 24.6341C25.7173 28.6141 28.4904 31.9466 32.2114 32.8062V24.6341C32.2114 23.5919 33.0592 22.7441 34.1013 22.7441C35.1434 22.7441 35.9913 23.5919 35.9913 24.6341C35.9913 25.5113 35.3966 26.2473 34.5841 26.4592C34.431 26.5004 34.2662 26.524 34.1013 26.524V33.0181C34.2662 33.0181 34.4251 33.0122 34.5841 33.0064C38.9881 32.7532 42.4854 29.1028 42.4854 24.6341C42.4913 20.0063 38.7349 16.25 34.1013 16.25Z"
        fill="white" />
    <path
        d="M34.1012 33.0157V26.5215C34.0541 26.5215 34.0129 26.5215 33.9658 26.5156V33.0157C34.0129 33.0157 34.06 33.0157 34.1012 33.0157Z"
        fill="white" />
    <defs>
        <linearGradient id="paint0_linear_81034_11496" x1="34.1041" y1="28.8261" x2="32.2122"
            y2="28.8261" gradientUnits="userSpaceOnUse">
            <stop stop-color="white" />
            <stop offset="0.9667" stop-color="white" stop-opacity="0.3233" />
            <stop offset="1" stop-color="white" stop-opacity="0.3" />
        </linearGradient>
    </defs>
</svg>
    