<svg width="20" height="20" viewBox="0 0 20 20" fill="none" xmlns="http://www.w3.org/2000/svg">
    <path
        d="M9.99984 6.2474C12.0709 6.2474 13.7498 7.92631 13.7498 9.9974C13.7498 12.0685 12.0709 13.7474 9.99984 13.7474C7.92875 13.7474 6.24984 12.0685 6.24984 9.9974C6.24984 7.92631 7.92875 6.2474 9.99984 6.2474ZM9.99984 6.2474H17.4438M7.08317 17.8061L12.3515 12.9141M2.49984 6.3606L7.03113 12.3107M9.99984 18.3307C14.6022 18.3307 18.3332 14.5998 18.3332 9.9974C18.3332 5.39502 14.6022 1.66406 9.99984 1.66406C5.39746 1.66406 1.6665 5.39502 1.6665 9.9974C1.6665 14.5998 5.39746 18.3307 9.99984 18.3307Z"
        stroke="#3E495E" stroke-width="1.25" stroke-linecap="round" stroke-linejoin="round" />
</svg>
    