<svg width="48" height="48" viewBox="0 0 48 48" fill="none" xmlns="http://www.w3.org/2000/svg">
    <path
        d="M11 4H21C21 5.105 21.895 6 23 6C24.105 6 25 5.105 25 4H35C37.211 4 39 5.789 39 8V40C39 42.211 37.211 44 35 44H11C8.789 44 7 42.211 7 40V8C7 5.789 8.789 4 11 4Z"
        fill="#455A64" />
    <path
        d="M11 41H35C35.551 41 36 40.551 36 40V8C36 7.449 35.551 7 35 7H11C10.449 7 10 7.449 10 8V40C10 40.551 10.449 41 11 41Z"
        fill="white" />
    <path
        d="M21 4C21 5.105 21.895 6 23 6C24.105 6 25 5.105 25 4H32V8C32 9.105 31.105 10 30 10H16C14.895 10 14 9.105 14 8V4H21Z"
        fill="#90A4AE" />
    <path
        d="M23 0C20.793 0 19 1.793 19 4C19 6.207 20.793 8 23 8C25.207 8 27 6.207 27 4C27 1.793 25.207 0 23 0ZM23 6C21.895 6 21 5.105 21 4C21 2.895 21.895 2 23 2C24.105 2 25 2.895 25 4C25 5.105 24.105 6 23 6Z"
        fill="#90A4AE" />
    <path d="M32 27H14V29H32V27Z" fill="#BDBDBD" />
    <path d="M32 33H14V35H32V33Z" fill="#BDBDBD" />
    <path d="M32 21H14V23H32V21Z" fill="#BDBDBD" />
    <path d="M32 15H14V17H32V15Z" fill="#BDBDBD" />
</svg>
    