<svg xmlns="http://www.w3.org/2000/svg" width="40" height="40" viewBox="0 0 40 40" fill="none">
    <g clip-path="url(#clip0_81034_11386)">
        <path
            d="M9.42322 3.64062H18.5147C18.5147 4.64523 19.3284 5.45892 20.333 5.45892C21.3376 5.45892 22.1513 4.64523 22.1513 3.64062H31.2428C33.2529 3.64062 34.8794 5.26709 34.8794 7.27722V36.37C34.8794 38.3801 33.2529 40.0066 31.2428 40.0066H9.42322C7.41309 40.0066 5.78662 38.3801 5.78662 36.37V7.27722C5.78662 5.26709 7.41309 3.64062 9.42322 3.64062Z"
            fill="#455A64" />
        <path
            d="M9.42331 37.2782H31.2429C31.7438 37.2782 32.152 36.87 32.152 36.3691V7.27634C32.152 6.7754 31.7438 6.36719 31.2429 6.36719H9.42331C8.92237 6.36719 8.51416 6.7754 8.51416 7.27634V36.3691C8.51416 36.87 8.92237 37.2782 9.42331 37.2782Z"
            fill="white" />
        <path
            d="M18.5149 3.64062C18.5149 4.64523 19.3286 5.45892 20.3332 5.45892C21.3378 5.45892 22.1515 4.64523 22.1515 3.64062H28.5156V7.27722C28.5156 8.28183 27.7019 9.09552 26.6973 9.09552H13.9692C12.9646 9.09552 12.1509 8.28183 12.1509 7.27722V3.64062H18.5149Z"
            fill="#90A4AE" />
        <path
            d="M20.3334 0C18.3269 0 16.6968 1.6301 16.6968 3.6366C16.6968 5.64309 18.3269 7.27319 20.3334 7.27319C22.3399 7.27319 23.97 5.64309 23.97 3.6366C23.97 1.6301 22.3399 0 20.3334 0ZM20.3334 5.45489C19.3288 5.45489 18.5151 4.6412 18.5151 3.6366C18.5151 2.63199 19.3288 1.8183 20.3334 1.8183C21.338 1.8183 22.1517 2.63199 22.1517 3.6366C22.1517 4.6412 21.338 5.45489 20.3334 5.45489Z"
            fill="#90A4AE" />
        <path d="M28.5156 24.5469H12.1509V26.3652H28.5156V24.5469Z" fill="#BDBDBD" />
        <path d="M28.5156 30H12.1509V31.8183H28.5156V30Z" fill="#BDBDBD" />
        <path d="M28.5156 19.0938H12.1509V20.912H28.5156V19.0938Z" fill="#BDBDBD" />
        <path d="M28.5156 13.6406H12.1509V15.4589H28.5156V13.6406Z" fill="#BDBDBD" />
    </g>
    <defs>
        <clipPath id="clip0_81034_11386">
            <rect width="40" height="40" fill="white" />
        </clipPath>
    </defs>
</svg>