<svg width="132" height="33" viewBox="0 0 132 33" fill="none" xmlns="http://www.w3.org/2000/svg">
    <g clip-path="url(#clip0_81034_11127)">
        <path
            d="M35.1147 18.5508C36.501 15.2618 29.6477 6.07293 23.1005 2.24465C18.9736 -0.721068 14.6734 -0.313628 13.8024 0.988547C11.8911 3.8463 20.1314 6.2678 25.6424 9.09354C24.4578 9.63997 23.3414 10.6206 22.6849 11.8747C20.6304 9.4925 16.121 7.4411 10.8296 9.09354C7.26389 10.2071 4.30049 12.8323 3.15516 16.7973C2.87686 16.666 2.56874 16.593 2.24457 16.593C1.00493 16.593 0 17.6603 0 18.9768C0 20.2934 1.00493 21.3606 2.24457 21.3606C2.47434 21.3606 3.19277 21.197 3.19277 21.197L14.6734 21.2853C10.082 29.0209 6.45357 30.1517 6.45357 31.4918C6.45357 32.832 9.92536 32.4688 11.2289 31.9693C17.4693 29.5779 24.1718 22.1251 25.3219 19.9797C30.1518 20.6196 34.2108 20.6953 35.1147 18.5508Z"
            fill="url(#paint0_linear_81034_11127)" />
        <path fill-rule="evenodd" clip-rule="evenodd"
            d="M25.6284 9.08432C25.6335 9.08668 25.6386 9.08904 25.6437 9.0914C25.8991 8.98454 25.8578 8.58386 25.7877 8.26922C25.6264 7.54601 22.8448 4.62885 20.2328 3.32225C16.6712 1.5407 14.0492 1.63372 13.6646 2.45576C14.3904 4.03359 17.751 5.51502 21.2608 7.06223C22.7534 7.72021 24.273 8.39008 25.6284 9.08432Z"
            fill="url(#paint1_linear_81034_11127)" />
        <path fill-rule="evenodd" clip-rule="evenodd"
            d="M21.1261 24.9806C20.4064 24.6884 19.5933 24.4204 18.6689 24.1772C19.6546 22.3041 19.8614 19.5311 18.9305 17.7779C17.6241 15.3174 15.9842 14.0078 12.1734 14.0078C10.0774 14.0078 4.43418 14.7576 4.334 19.7607C4.32348 20.286 4.33375 20.7673 4.36958 21.21L14.6735 21.2893C13.2845 23.6294 11.9837 25.3651 10.8448 26.685C12.2125 27.0573 13.3412 27.3697 14.3774 27.6566C15.3606 27.9288 16.2606 28.178 17.2025 28.4332C18.6233 27.3338 19.959 26.135 21.1261 24.9806Z"
            fill="url(#paint2_linear_81034_11127)" />
        <path
            d="M3.01619 20.6956C3.43716 24.4962 5.47096 25.9857 9.62682 26.4264C13.7827 26.8672 16.1666 26.5715 19.3403 26.8782C21.991 27.1343 24.3577 28.5689 25.2357 28.0731C26.0259 27.627 25.5838 26.0151 24.5265 24.9809C23.1559 23.6404 21.259 22.7084 17.9213 22.3776C18.5865 20.4434 18.4001 17.7314 17.367 16.2559C15.8734 14.1225 13.1163 13.1579 9.62683 13.5794C5.98115 14.0197 2.48788 15.9259 3.01619 20.6956Z"
            fill="url(#paint3_linear_81034_11127)" />
        <path
            d="M46.7797 14.8969H47.4673C48.1859 14.8969 48.7372 14.7336 49.1213 14.4071C49.5053 14.0806 49.6974 13.6112 49.6974 12.999C49.6974 12.3868 49.5053 11.9174 49.1213 11.5909C48.7372 11.2644 48.1859 11.1012 47.4673 11.1012H46.7797V14.8969ZM54.7894 23.4066H50.2549L46.7797 17.4886V23.4066H43.1372V8.01969H48.8053C49.5859 8.01969 50.2673 8.14893 50.8496 8.40742C51.4319 8.65231 51.9089 8.99242 52.2805 9.42777C52.6646 9.86312 52.9496 10.3665 53.1354 10.9379C53.3336 11.5093 53.4328 12.1215 53.4328 12.7745C53.4328 13.9445 53.1726 14.8969 52.6522 15.6315C52.1443 16.3526 51.3885 16.8423 50.385 17.1008L54.7894 23.4066Z"
            fill="white" />
        <path
            d="M57.7864 18.1416C57.7864 18.4817 57.8421 18.8014 57.9536 19.1007C58.0651 19.3864 58.2138 19.6381 58.3996 19.8558C58.5979 20.0735 58.8271 20.2435 59.0872 20.366C59.3598 20.4884 59.651 20.5496 59.9607 20.5496C60.258 20.5496 60.5368 20.4884 60.797 20.366C61.0695 20.2435 61.2987 20.0735 61.4846 19.8558C61.6828 19.6381 61.8377 19.3864 61.9492 19.1007C62.0731 18.815 62.135 18.5089 62.135 18.1824C62.135 17.8559 62.0731 17.5498 61.9492 17.2641C61.8377 16.9648 61.6828 16.7063 61.4846 16.4886C61.2987 16.2709 61.0695 16.1009 60.797 15.9784C60.5368 15.856 60.258 15.7948 59.9607 15.7948C59.651 15.7948 59.3598 15.856 59.0872 15.9784C58.8271 16.1009 58.5979 16.2709 58.3996 16.4886C58.2138 16.7063 58.0651 16.958 57.9536 17.2437C57.8421 17.5158 57.7864 17.8151 57.7864 18.1416ZM62.0235 12.9378H65.4058V23.4066H62.0235V22.2434C61.3049 23.2365 60.3324 23.7331 59.1058 23.7331C58.412 23.7331 57.774 23.5971 57.1917 23.325C56.6094 23.0393 56.1014 22.6447 55.6678 22.1414C55.2342 21.638 54.8934 21.0462 54.6457 20.366C54.4103 19.6857 54.2926 18.9443 54.2926 18.1416C54.2926 17.3933 54.4103 16.6859 54.6457 16.0193C54.8811 15.339 55.2094 14.7472 55.6306 14.2438C56.0518 13.7405 56.5536 13.3459 57.1359 13.0602C57.7182 12.7609 58.3625 12.6113 59.0687 12.6113C60.258 12.6113 61.243 13.067 62.0235 13.9785V12.9378Z"
            fill="white" />
        <path
            d="M74.1807 18.2028C74.1807 17.8763 74.1249 17.5702 74.0134 17.2845C73.9019 16.9852 73.747 16.7267 73.5488 16.509C73.3506 16.2913 73.1214 16.1213 72.8612 15.9988C72.601 15.8628 72.3161 15.7948 72.0063 15.7948C71.709 15.7948 71.4302 15.856 71.1701 15.9784C70.9099 16.1009 70.6807 16.2709 70.4824 16.4886C70.2966 16.7063 70.1417 16.9648 70.0178 17.2641C69.9063 17.5498 69.8506 17.8559 69.8506 18.1824C69.8506 18.5089 69.9063 18.815 70.0178 19.1007C70.1293 19.3864 70.2842 19.6381 70.4824 19.8558C70.6807 20.0598 70.9099 20.2299 71.1701 20.366C71.4426 20.4884 71.7276 20.5496 72.0249 20.5496C72.3223 20.5496 72.601 20.4884 72.8612 20.366C73.1214 20.2435 73.3444 20.0735 73.5302 19.8558C73.7285 19.6381 73.8833 19.3864 73.9948 19.1007C74.1187 18.815 74.1807 18.5157 74.1807 18.2028ZM69.9435 6.46875V13.9785C70.7364 13.067 71.7276 12.6113 72.917 12.6113C73.6231 12.6113 74.2674 12.7609 74.8497 13.0602C75.4444 13.3459 75.9461 13.7405 76.355 14.2438C76.7762 14.7336 77.1046 15.3186 77.3399 15.9988C77.5753 16.6655 77.693 17.3797 77.693 18.1416C77.693 18.9171 77.5692 19.6449 77.3214 20.3251C77.086 21.0054 76.7515 21.5972 76.3178 22.1006C75.8842 22.6039 75.37 23.0053 74.7754 23.3046C74.1931 23.5903 73.5612 23.7331 72.8798 23.7331C71.6408 23.7331 70.6621 23.2365 69.9435 22.2434V23.4066H66.5798V6.46875H69.9435Z"
            fill="white" />
        <path
            d="M86.0962 18.2028C86.0962 17.8763 86.0405 17.5702 85.929 17.2845C85.8175 16.9852 85.6626 16.7267 85.4644 16.509C85.2661 16.2913 85.0369 16.1213 84.7767 15.9988C84.5166 15.8628 84.2316 15.7948 83.9219 15.7948C83.6245 15.7948 83.3458 15.856 83.0856 15.9784C82.8254 16.1009 82.5962 16.2709 82.398 16.4886C82.2122 16.7063 82.0573 16.9648 81.9334 17.2641C81.8219 17.5498 81.7661 17.8559 81.7661 18.1824C81.7661 18.5089 81.8219 18.815 81.9334 19.1007C82.0449 19.3864 82.1998 19.6381 82.398 19.8558C82.5962 20.0598 82.8254 20.2299 83.0856 20.366C83.3582 20.4884 83.6431 20.5496 83.9405 20.5496C84.2378 20.5496 84.5166 20.4884 84.7767 20.366C85.0369 20.2435 85.2599 20.0735 85.4458 19.8558C85.644 19.6381 85.7989 19.3864 85.9104 19.1007C86.0343 18.815 86.0962 18.5157 86.0962 18.2028ZM81.8591 6.46875V13.9785C82.652 13.067 83.6431 12.6113 84.8325 12.6113C85.5387 12.6113 86.1829 12.7609 86.7652 13.0602C87.3599 13.3459 87.8617 13.7405 88.2705 14.2438C88.6918 14.7336 89.0201 15.3186 89.2555 15.9988C89.4909 16.6655 89.6086 17.3797 89.6086 18.1416C89.6086 18.9171 89.4847 19.6449 89.2369 20.3251C89.0015 21.0054 88.667 21.5972 88.2334 22.1006C87.7998 22.6039 87.2856 23.0053 86.6909 23.3046C86.1086 23.5903 85.4767 23.7331 84.7953 23.7331C83.5564 23.7331 82.5776 23.2365 81.8591 22.2434V23.4066H78.4954V6.46875H81.8591Z"
            fill="white" />
        <path
            d="M93.3594 21.9781L88.7505 12.9378H92.6532L95.1992 18.3048L97.6709 12.9378H101.536L93.8797 28.6308H90.1072L93.3594 21.9781Z"
            fill="white" />
        <path
            d="M131.149 20.4153V23.715H129.169C127.758 23.715 126.658 23.3737 125.869 22.691C125.081 21.9931 124.686 20.8629 124.686 19.3002V14.2482H123.139V11.0168H124.686V7.92188H128.578V11.0168H131.126V14.2482H128.578V19.3457C128.578 19.725 128.669 19.9981 128.851 20.165C129.033 20.3319 129.336 20.4153 129.761 20.4153H131.149Z"
            fill="white" />
        <path
            d="M119.318 9.70218C118.635 9.70218 118.074 9.50496 117.634 9.11051C117.209 8.70089 116.997 8.20024 116.997 7.60856C116.997 7.00172 117.209 6.50107 117.634 6.10662C118.074 5.697 118.635 5.49219 119.318 5.49219C119.985 5.49219 120.531 5.697 120.956 6.10662C121.396 6.50107 121.616 7.00172 121.616 7.60856C121.616 8.20024 121.396 8.70089 120.956 9.11051C120.531 9.50496 119.985 9.70218 119.318 9.70218ZM121.252 11.0221V23.7203H117.361V11.0221H121.252Z"
            fill="white" />
        <path
            d="M110.826 23.3903L105.938 16.97V23.3903H102.397V8.85156H105.938V15.2304L110.785 8.85156H114.947L109.314 15.9759L115.155 23.3903H110.826Z"
            fill="white" />
    </g>
    <defs>
        <linearGradient id="paint0_linear_81034_11127" x1="10.4144" y1="15.6383" x2="35.024"
            y2="22.2094" gradientUnits="userSpaceOnUse">
            <stop stop-color="white" />
            <stop offset="1" stop-color="white" />
        </linearGradient>
        <linearGradient id="paint1_linear_81034_11127" x1="30.7084" y1="15.1426" x2="12.0401"
            y2="-2.4792" gradientUnits="userSpaceOnUse">
            <stop stop-color="#8697FF" />
            <stop offset="1" stop-color="#8697FF" stop-opacity="0" />
        </linearGradient>
        <linearGradient id="paint2_linear_81034_11127" x1="21.6161" y1="25.6336" x2="4.21228"
            y2="16.2121" gradientUnits="userSpaceOnUse">
            <stop stop-color="#8697FF" />
            <stop offset="1" stop-color="#8697FF" stop-opacity="0" />
        </linearGradient>
        <linearGradient id="paint3_linear_81034_11127" x1="11.8698" y1="15.4486" x2="24.163"
            y2="30.1559" gradientUnits="userSpaceOnUse">
            <stop stop-color="white" />
            <stop offset="0.983895" stop-color="#D1D8FF" />
        </linearGradient>
        <clipPath id="clip0_81034_11127">
            <rect width="132" height="33" fill="white" />
        </clipPath>
    </defs>
</svg>
    