<svg width="36" height="33" viewBox="0 0 36 33" fill="none" xmlns="http://www.w3.org/2000/svg">
    <path
        d="M35.1147 18.5508C36.501 15.2618 29.6477 6.07293 23.1005 2.24465C18.9736 -0.721068 14.6734 -0.313628 13.8024 0.988548C11.8911 3.8463 20.1314 6.2678 25.6424 9.09354C24.4578 9.63997 23.3414 10.6206 22.6849 11.8747C20.6304 9.4925 16.121 7.4411 10.8296 9.09354C7.26389 10.2071 4.30049 12.8323 3.15516 16.7973C2.87686 16.666 2.56874 16.593 2.24457 16.593C1.00493 16.593 0 17.6603 0 18.9768C0 20.2934 1.00493 21.3606 2.24457 21.3606C2.47434 21.3606 3.19277 21.197 3.19277 21.197L14.6734 21.2853C10.082 29.0209 6.45357 30.1517 6.45357 31.4918C6.45357 32.832 9.92536 32.4688 11.2289 31.9693C17.4693 29.5779 24.1718 22.1251 25.3219 19.9797C30.1518 20.6196 34.2108 20.6953 35.1147 18.5508Z"
        fill="url(#paint0_linear_81034_11128)" />
    <path fill-rule="evenodd" clip-rule="evenodd"
        d="M25.6284 9.08432C25.6335 9.08668 25.6386 9.08904 25.6437 9.0914C25.8991 8.98454 25.8578 8.58386 25.7877 8.26922C25.6264 7.54601 22.8448 4.62885 20.2328 3.32225C16.6712 1.5407 14.0492 1.63372 13.6646 2.45576C14.3904 4.03359 17.751 5.51502 21.2608 7.06223C22.7534 7.72021 24.273 8.39008 25.6284 9.08432Z"
        fill="url(#paint1_linear_81034_11128)" />
    <path fill-rule="evenodd" clip-rule="evenodd"
        d="M21.1261 24.9806C20.4064 24.6884 19.5933 24.4204 18.6689 24.1772C19.6546 22.3041 19.8614 19.5311 18.9305 17.7779C17.6241 15.3174 15.9842 14.0078 12.1734 14.0078C10.0774 14.0078 4.43418 14.7576 4.334 19.7607C4.32348 20.286 4.33375 20.7673 4.36958 21.21L14.6735 21.2893C13.2845 23.6294 11.9837 25.3651 10.8448 26.685C12.2125 27.0573 13.3412 27.3697 14.3774 27.6566C15.3606 27.9288 16.2606 28.178 17.2025 28.4332C18.6233 27.3338 19.959 26.135 21.1261 24.9806Z"
        fill="url(#paint2_linear_81034_11128)" />
    <path
        d="M3.01619 20.6956C3.43716 24.4962 5.47096 25.9857 9.62682 26.4264C13.7827 26.8672 16.1666 26.5715 19.3403 26.8782C21.991 27.1343 24.3577 28.5689 25.2357 28.0731C26.0259 27.627 25.5838 26.0151 24.5265 24.9809C23.1559 23.6404 21.259 22.7084 17.9213 22.3776C18.5865 20.4434 18.4001 17.7314 17.367 16.2559C15.8734 14.1225 13.1163 13.1579 9.62683 13.5794C5.98115 14.0197 2.48788 15.9259 3.01619 20.6956Z"
        fill="url(#paint3_linear_81034_11128)" />
    <defs>
        <linearGradient id="paint0_linear_81034_11128" x1="10.4144" y1="15.6383" x2="35.024"
            y2="22.2094" gradientUnits="userSpaceOnUse">
            <stop stop-color="white" />
            <stop offset="1" stop-color="white" />
        </linearGradient>
        <linearGradient id="paint1_linear_81034_11128" x1="30.7084" y1="15.1426" x2="12.0401"
            y2="-2.4792" gradientUnits="userSpaceOnUse">
            <stop stop-color="#8697FF" />
            <stop offset="1" stop-color="#8697FF" stop-opacity="0" />
        </linearGradient>
        <linearGradient id="paint2_linear_81034_11128" x1="21.6161" y1="25.6336" x2="4.21228"
            y2="16.2121" gradientUnits="userSpaceOnUse">
            <stop stop-color="#8697FF" />
            <stop offset="1" stop-color="#8697FF" stop-opacity="0" />
        </linearGradient>
        <linearGradient id="paint3_linear_81034_11128" x1="11.8698" y1="15.4486" x2="24.163"
            y2="30.1559" gradientUnits="userSpaceOnUse">
            <stop stop-color="white" />
            <stop offset="0.983895" stop-color="#D1D8FF" />
        </linearGradient>
    </defs>
</svg>
    