<svg width="40" height="40" viewBox="0 0 40 40" fill="none" xmlns="http://www.w3.org/2000/svg">
    <rect width="40" height="40" rx="20" fill="#3183FA" />
    <path
        d="M11.88 14.6692C16.3645 10.1103 23.6356 10.1103 28.1201 14.6692L28.66 15.2178C28.7132 15.2714 28.7555 15.3356 28.7844 15.4065C28.8133 15.4774 28.8282 15.5536 28.8282 15.6305C28.8282 15.7075 28.8133 15.7837 28.7844 15.8546C28.7555 15.9255 28.7132 15.9897 28.66 16.0433L26.8137 17.9202C26.7593 17.975 26.6865 18.0057 26.6107 18.0057C26.5349 18.0057 26.4621 17.975 26.4077 17.9202L25.6648 17.1651C22.5363 13.9847 17.4638 13.9847 14.3353 17.1651L13.5399 17.9737C13.4855 18.0286 13.4127 18.0592 13.3369 18.0592C13.2611 18.0592 13.1883 18.0286 13.1339 17.9737L11.2876 16.0968C11.2344 16.0432 11.1921 15.979 11.1632 15.9081C11.1343 15.8373 11.1194 15.7611 11.1194 15.6841C11.1194 15.6071 11.1343 15.5309 11.1632 15.46C11.1921 15.3891 11.2344 15.325 11.2876 15.2714L11.88 14.6692ZM31.9386 18.5507L33.5817 20.2213C33.635 20.2748 33.6773 20.339 33.7062 20.4099C33.7351 20.4808 33.75 20.557 33.75 20.634C33.75 20.711 33.7351 20.7872 33.7062 20.8581C33.6773 20.929 33.635 20.9931 33.5817 21.0467L26.1724 28.579C26.0637 28.6887 25.918 28.75 25.7664 28.75C25.6148 28.75 25.4692 28.6887 25.3604 28.579L20.1017 23.2332C20.0745 23.2057 20.0381 23.1904 20.0002 23.1904C19.9623 23.1904 19.9258 23.2057 19.8987 23.2332L14.6399 28.5788C14.5311 28.6885 14.3855 28.7498 14.2339 28.7498C14.0823 28.7498 13.9366 28.6885 13.8279 28.5788L6.4182 21.0469C6.36498 20.9933 6.32267 20.9291 6.29378 20.8582C6.26489 20.7874 6.25 20.7112 6.25 20.6342C6.25 20.5572 6.26489 20.481 6.29378 20.4101C6.32267 20.3392 6.36498 20.2751 6.4182 20.2215L8.0615 18.5509C8.17027 18.4413 8.31591 18.38 8.46751 18.38C8.61911 18.38 8.76474 18.4413 8.87351 18.5509L14.1325 23.8964C14.1597 23.9238 14.1961 23.9391 14.234 23.9391C14.2719 23.9391 14.3083 23.9238 14.3355 23.8964L19.5941 18.5507C19.7028 18.4411 19.8485 18.3798 20.0001 18.3798C20.1517 18.3798 20.2973 18.4411 20.4061 18.5507L25.6648 23.8966C25.692 23.924 25.7284 23.9393 25.7663 23.9393C25.8042 23.9393 25.8406 23.924 25.8678 23.8966L31.1266 18.5509C31.2354 18.4413 31.381 18.38 31.5326 18.38C31.6842 18.38 31.8298 18.4413 31.9386 18.5509V18.5507Z"
        fill="white" />
</svg>
    