<svg width="28" height="28" viewBox="0 0 28 28" fill="none" xmlns="http://www.w3.org/2000/svg">
    <rect width="28" height="28" rx="14" fill="#3183FA" />
    <path
        d="M8.5 21.3359V6.66927C8.5 5.66094 9.325 4.83594 10.3333 4.83594H17.6667C18.675 4.83594 19.5 5.66094 19.5 6.66927V21.3359C19.5 22.3443 18.675 23.1693 17.6667 23.1693H10.3333C9.325 23.1693 8.5 22.3443 8.5 21.3359Z"
        fill="white" />
    <path
        d="M17.6667 6.21094H10.3333C10.0583 6.21094 9.875 6.39427 9.875 6.66927V19.9609C9.875 20.2359 10.0583 20.4193 10.3333 20.4193H17.6667C17.9417 20.4193 18.125 20.2359 18.125 19.9609V6.66927C18.125 6.39427 17.9417 6.21094 17.6667 6.21094Z"
        fill="#3183FA" />
    <path d="M12.625 21.3359H15.375V22.2526H12.625V21.3359Z" fill="#3183FA" />
</svg>
    