<svg xmlns="http://www.w3.org/2000/svg" width="28" height="28" viewBox="0 0 28 28" fill="none">
    <rect width="28" height="28" rx="14" fill="#3183FA" />
    <path
        d="M7 7V11.6667H11.6667V7H7ZM10.1111 10.1111H8.55556V8.55556H10.1111V10.1111ZM16.3333 7V11.6667H21V7H16.3333ZM19.4444 10.1111H17.8889V8.55556H19.4444V10.1111ZM7 16.3333V21H11.6667V16.3333H7ZM10.1111 19.4444H8.55556V17.8889H10.1111V19.4444ZM13.2222 7H14.7778V8.55556H13.2222V7ZM13.2222 10.1111H14.7778V13.2222H13.2222V10.1111ZM7 13.2222H13.2222V14.7778H7V13.2222ZM13.2222 14.7778H14.7778V17.8889H13.2222V14.7778ZM14.7778 19.4444H16.3333V21H14.7778V19.4444ZM14.7778 13.2222H19.4444V14.7778H14.7778V13.2222ZM19.4444 14.7778H21V16.3333H19.4444V14.7778Z"
        fill="white" />
    <path
        d="M14.7793 13.2207H17.8904V16.3318H14.7793V13.2207ZM17.8904 16.3318H19.446V20.9985H17.8904V16.3318ZM19.446 19.4429H21.0015V20.9985H19.446V19.4429Z"
        fill="white" />
    <path
        d="M13.2207 14.7793H17.8874V16.3349H13.2207V14.7793ZM13.2207 17.8904H16.3318V19.446H13.2207V17.8904Z"
        fill="white" />
    <path d="M13.2207 17.8896H19.4429V19.4452H13.2207V17.8896Z" fill="white" />
</svg>
    