<svg xmlns="http://www.w3.org/2000/svg" width="80" height="80" viewBox="0 0 80 80" fill="none">
    <rect x="1.33333" y="1.33333" width="77.3333" height="77.3333" rx="38.6667" fill="#3183FA" />
    <path
        d="M23.7599 29.3383C32.7291 20.2206 47.2711 20.2206 56.2403 29.3383L57.32 30.4356C57.4265 30.5428 57.5111 30.6711 57.5689 30.8129C57.6267 30.9547 57.6564 31.1071 57.6564 31.2611C57.6564 31.415 57.6267 31.5674 57.5689 31.7092C57.5111 31.851 57.4265 31.9793 57.32 32.0865L53.6274 35.8404C53.5187 35.95 53.373 36.0114 53.2214 36.0114C53.0698 36.0114 52.9242 35.95 52.8154 35.8404L51.3297 34.3303C45.0727 27.9694 34.9275 27.9694 28.6706 34.3303L27.0798 35.9475C26.971 36.0571 26.8254 36.1184 26.6738 36.1184C26.5222 36.1184 26.3765 36.0571 26.2678 35.9475L22.5752 32.1936C22.4687 32.0864 22.3841 31.9581 22.3263 31.8163C22.2685 31.6745 22.2388 31.5221 22.2388 31.3681C22.2388 31.2142 22.2685 31.0618 22.3263 30.92C22.3841 30.7782 22.4687 30.6499 22.5752 30.5427L23.7599 29.3383ZM63.8772 37.1015L67.1634 40.4425C67.2699 40.5497 67.3546 40.678 67.4124 40.8198C67.4702 40.9616 67.5 41.114 67.5 41.268C67.5 41.4219 67.4702 41.5743 67.4124 41.7161C67.3546 41.8579 67.2699 41.9862 67.1634 42.0934L52.3449 57.158C52.1273 57.3773 51.836 57.5 51.5328 57.5C51.2296 57.5 50.9384 57.3773 50.7208 57.158L40.2033 46.4663C40.1489 46.4115 40.0761 46.3808 40.0003 46.3808C39.9245 46.3808 39.8517 46.4115 39.7973 46.4663L29.2798 57.1576C29.0622 57.3769 28.771 57.4996 28.4678 57.4996C28.1646 57.4996 27.8733 57.3769 27.6557 57.1576L12.8364 42.0938C12.73 41.9866 12.6453 41.8583 12.5876 41.7165C12.5298 41.5747 12.5 41.4223 12.5 41.2683C12.5 41.1144 12.5298 40.962 12.5876 40.8202C12.6453 40.6784 12.73 40.5501 12.8364 40.4429L16.123 37.1019C16.3405 36.8826 16.6318 36.7599 16.935 36.7599C17.2382 36.7599 17.5295 36.8826 17.747 37.1019L28.2649 47.7928C28.3193 47.8476 28.3921 47.8783 28.4679 47.8783C28.5437 47.8783 28.6166 47.8476 28.6709 47.7928L39.1881 37.1015C39.4056 36.8822 39.6969 36.7595 40.0001 36.7595C40.3033 36.7595 40.5946 36.8822 40.8121 37.1015L51.3297 47.7932C51.384 47.848 51.4569 47.8787 51.5327 47.8787C51.6085 47.8787 51.6813 47.848 51.7357 47.7932L62.2532 37.1019C62.4707 36.8826 62.762 36.7599 63.0652 36.7599C63.3684 36.7599 63.6597 36.8826 63.8772 37.1019V37.1015Z"
        fill="white" />
    <rect x="1.33333" y="1.33333" width="77.3333" height="77.3333" rx="38.6667" stroke="white"
        stroke-width="2.66667" />
</svg>