<svg width="100%" height="100%" viewBox="0 0 28 28" fill="none" xmlns="http://www.w3.org/2000/svg">
    <rect width="100%" height="100%" rx="14" fill="url(#paint0_linear_73607_12943)" />
    <path d="M5.10938 4.375L12.8204 10.2331L11.5655 6.85811L5.10938 4.375Z" fill="#E27625" />
    <path d="M4.08496 17.7837L5.57483 22.2533L10.0752 20.7635L7.92335 17.7515L4.08496 17.7837Z"
        fill="#E27625" />
    <path d="M9.7034 12.0107L8.52393 14.3075L13.0556 14.4317L12.6211 9.34131L9.7034 12.0107Z"
        fill="#E27625" />
    <path d="M10.0757 20.7634L12.5742 19.7702L10.324 17.7837L10.0757 20.7634Z" fill="#E27625" />
    <path d="M10.0757 20.7638L12.4654 22.1915L12.5742 19.7705L10.0757 20.7638Z" fill="#D7CCC8" />
    <path d="M10.0751 20.7634L10.3234 17.7837H7.90234L10.0751 20.7634Z" fill="#CC6228" />
    <path d="M12.8693 14.3076L12.4834 16.7182L12.9979 19.3672L13.1131 15.8759L12.8693 14.3076Z"
        fill="#FB8C00" />
    <path
        d="M4.11621 7.35473L5.60608 13.8108L9.74293 12.4228L12.5588 9.83784L5.10945 4.375L4.11621 7.35473Z"
        fill="#763E1A" />
    <path
        d="M12.5588 16.4182L8.58584 14.3075L9.74247 12.4229L5.60562 13.8109L4.08496 17.7839H10.324L12.5742 19.7704L12.9973 19.3671L12.5588 16.4182Z"
        fill="#FB8C00" />
    <path d="M10.3241 16.0458L12.5589 16.7907L12.8693 14.3076H8.58594L10.3241 16.0458Z"
        fill="#CC6228" />
    <path d="M12.559 16.7906L10.3242 16.0457L11.8762 15.3008L12.559 16.7906Z" fill="#212121" />
    <path d="M16.5147 6.85811L15.2593 10.2331L22.9708 4.375L16.5147 6.85811Z" fill="#E27625" />
    <path d="M20.157 17.7515L18.0215 20.7635L22.5055 22.2533L23.9953 17.7837L20.157 17.7515Z"
        fill="#E27625" />
    <path d="M15.4144 9.46533L15.1909 14.4748L19.5567 14.3074L18.5178 12.3209L15.4144 9.46533Z"
        fill="#E27625" />
    <path d="M17.7563 17.7837L15.5225 19.7702L18.021 20.7634L17.7563 17.7837Z" fill="#E27625" />
    <path d="M15.5225 19.7705L15.6148 22.1915L18.0215 20.7638L15.5225 19.7705Z" fill="#D7CCC8" />
    <path d="M20.1774 17.7837H17.7563L18.021 20.7634L20.1774 17.7837Z" fill="#CC6228" />
    <path
        d="M15.7079 21.9789V21.2603H12.3726V21.9789L10.0757 20.7637L12.5588 22.7502H15.5216L18.0216 20.7637L15.7079 21.9789Z"
        fill="#BCAAA4" />
    <path
        d="M22.971 4.375L15.5386 9.83784L18.338 12.4228L22.4908 13.8108L23.9643 7.35473L22.971 4.375Z"
        fill="#763E1A" />
    <path
        d="M22.4911 13.8109L18.3378 12.4229L19.4945 14.3075L15.5751 16.5801L15.2111 14.3075L14.9678 15.8759L15.083 19.3671L15.0835 19.3636L15.083 19.3671L15.5225 19.7704L17.7563 17.7839H23.9954L22.4911 13.8109Z"
        fill="#FB8C00" />
    <path
        d="M11.5654 6.85791L12.5587 9.83764L12.8894 14.4746L12.9892 15.883L12.9972 19.3668H14.0396V19.3445L14.0406 19.3668H15.083L15.0909 15.883L15.1908 14.4746L15.5384 9.83764L16.5316 6.85791H11.5654Z"
        fill="#FB8C00" />
    <path
        d="M15.5385 19.7701L15.0717 19.2734H13.0087L12.5588 19.7701L12.3726 21.2599H15.7079L15.5385 19.7701Z"
        fill="#212121" />
    <path d="M19.4948 14.3076H15.2114L15.5218 16.7907L17.7566 16.0458L19.4948 14.3076Z"
        fill="#CC6228" />
    <path d="M16.2212 15.3008L17.7568 16.0457L15.522 16.7906L16.2212 15.3008Z" fill="#212121" />
    <defs>
        <linearGradient id="paint0_linear_73607_12943" x1="14" y1="0" x2="14" y2="28"
            gradientUnits="userSpaceOnUse">
            <stop stop-color="#FEF5E6" />
            <stop offset="1" stop-color="#E4CBB1" />
        </linearGradient>
    </defs>
</svg>