<svg width="96" height="68" viewBox="0 0 96 68" fill="none" xmlns="http://www.w3.org/2000/svg">
<path d="M66.01 22.0873L70.64 27.5273C71.17 28.1383 71.64 28.6409 71.83 28.9267C73.2147 30.3028 73.9911 32.1626 73.99 34.1006C73.86 36.387 72.37 37.9441 70.99 39.6096L67.75 43.4137L66.06 45.3847C65.9994 45.4526 65.9603 45.5366 65.9475 45.6263C65.9348 45.7159 65.949 45.8072 65.9884 45.889C66.0277 45.9708 66.0905 46.0394 66.169 46.0864C66.2475 46.1333 66.3382 46.1566 66.43 46.1534H83.32C85.9 46.1534 89.15 48.3215 88.96 51.6131C88.9547 53.1091 88.3493 54.5425 87.2759 55.6003C86.2025 56.6582 84.7481 57.2548 83.23 57.26H56.78C55.04 57.26 50.36 57.4473 49.05 53.456C48.7714 52.6219 48.7333 51.7281 48.94 50.8739C49.3208 49.611 49.9232 48.4235 50.72 47.3655C52.05 45.3945 53.49 43.4235 54.91 41.5116C56.74 39.0084 58.62 36.5841 60.47 34.0316C60.5357 33.9485 60.5714 33.8462 60.5714 33.7409C60.5714 33.6356 60.5357 33.5333 60.47 33.4502L53.75 25.5661C53.7062 25.509 53.6495 25.4626 53.5844 25.4307C53.5194 25.3988 53.4477 25.3822 53.375 25.3822C53.3023 25.3822 53.2306 25.3988 53.1656 25.4307C53.1005 25.4626 53.0438 25.509 53 25.5661C51.2 27.9609 43.32 38.565 41.64 40.7134C39.96 42.8618 35.82 42.98 33.53 40.7134L23.02 30.3163C22.9529 30.2499 22.8672 30.2046 22.774 30.1863C22.6807 30.1679 22.584 30.1773 22.4962 30.2132C22.4083 30.2491 22.3332 30.3099 22.2805 30.3879C22.2278 30.4659 22.1998 30.5576 22.2 30.6513V50.6473C22.2247 52.0663 21.7984 53.4573 20.9806 54.6255C20.1629 55.7936 18.9948 56.6804 17.64 57.1615C16.7743 57.4584 15.8492 57.5471 14.9416 57.4201C14.0341 57.2931 13.1706 56.9541 12.423 56.4314C11.6754 55.9088 11.0654 55.2175 10.6439 54.4154C10.2225 53.6132 10.0017 52.7234 10 51.82V15.8687C10.0603 14.5731 10.5333 13.3292 11.3519 12.3137C12.1705 11.2982 13.293 10.5628 14.56 10.2119C15.6468 9.92658 16.7908 9.92944 17.8761 10.2202C18.9614 10.5109 19.9494 11.0793 20.74 11.8676L36.9 27.8131C36.9484 27.8615 37.0069 27.8989 37.0716 27.9225C37.1362 27.9461 37.2054 27.9555 37.2741 27.9498C37.3428 27.9442 37.4094 27.9237 37.4692 27.8899C37.529 27.856 37.5804 27.8096 37.62 27.7539L49.1 12.0942C49.6305 11.4585 50.2956 10.9448 51.0488 10.589C51.8019 10.2332 52.6249 10.044 53.46 10.0345H83.32C84.1372 10.0359 84.9447 10.2091 85.6884 10.5427C86.4322 10.8764 87.0951 11.3627 87.6328 11.9691C88.1705 12.5755 88.5706 13.2881 88.8064 14.0592C89.0422 14.8303 89.1082 15.6421 89 16.4403C88.7896 17.825 88.0767 19.0876 86.9936 19.9937C85.9104 20.8998 84.5306 21.3881 83.11 21.3679H66.39C66.306 21.3699 66.2241 21.3941 66.1527 21.4379C66.0814 21.4817 66.0233 21.5436 65.9845 21.617C65.9457 21.6905 65.9276 21.7729 65.9321 21.8556C65.9366 21.9383 65.9635 22.0183 66.01 22.0873Z" fill="#E93A88"/>
</svg>
